<svg class="svg-icon" style="width: 1em; height: 1em;vertical-align: middle;fill: currentColor;overflow: hidden;" viewBox="0 0 1024 1024" version="1.1" xmlns="http://www.w3.org/2000/svg"><path d="M746.944 625.104 563.632 442.944l0.576-0.576-52.272-50.784-52.144 50.784 0.528 0.528L277.056 625.104l52.208 52.208L512 494.576l182.736 182.736L746.944 625.104zM512 16C238.064 16 16 238.064 16 512s222.064 496 496 496 496-222.064 496-496S785.936 16 512 16zM512 955.792C266.896 955.792 68.208 757.104 68.208 512 68.208 266.912 266.896 68.208 512 68.208S955.792 266.912 955.792 512C955.792 757.104 757.104 955.792 512 955.792z"  /></svg>